<svg width="900" height="500" xmlns="http://www.w3.org/2000/svg">
 <!-- Created with Method Draw - http://github.com/duopixel/Method-Draw/ -->

 <g>
  <title>background</title>
  <rect x="-1" y="-1" width="902" height="502" id="canvas_background" fill="#fff"/>
  <g id="canvasGrid" display="none">
   <rect id="svg_4" width="100%" height="100%" x="0" y="0" stroke-width="0" fill="url(#gridpattern)"/>
  </g>
 </g>
 <g>
  <title>Layer 1</title>
  <rect fill="#56aaff" stroke="#000" stroke-width="1.5" x="30" y="37" width="460" height="25" id="FIT"/>
  <rect fill="#56aaff" stroke="#000" stroke-width="1.5" x="324.5" y="68.45313" width="141" height="28" id="Common RSP"/>
  <rect fill="#ffff56" stroke="#000" stroke-width="1.5" x="53.5" y="66.45313" width="34" height="43" id="RF"/>
  <rect fill="#ffff56" stroke="#000" stroke-width="1.5" x="92.5" y="66.45313" width="34" height="43" id="SRF"/>
  <rect fill="#ffff56" stroke="#000" stroke-width="1.5" x="135.5" y="68.45313" width="178" height="28" id="ST Common RSP"/>
  <rect fill="#ffff56" stroke="#000" stroke-width="1.5" x="19.5" y="173.45313" width="99" height="52" id="BSI "/>
  <rect fill="#ffff56" stroke="#000" stroke-width="1.5" x="19.5" y="233.1198" width="131" height="57" id="SMC"/>
  <rect fill="#ffff56" stroke="#000" stroke-width="1.5" x="158.5" y="226.45313" width="153" height="37" id="SUR"/>
  <rect fill="#ffff56" stroke="#000" stroke-width="1.5" x="158.5" y="273.45313" width="153" height="44" id="SUB"/>
  <rect fill="#ffff56" stroke="#000" stroke-width="1.5" x="323.5" y="218.45313" width="145" height="73" id="BSO"/>
  <rect fill="#999999" stroke="#000" stroke-width="1.5" x="26.5" y="69.45313" width="20" height="40" id="REPAIR"/>
  <rect fill="#999999" stroke="#000" stroke-width="1.5" x="19.5" y="120.45313" width="99" height="43" id="BSI G"/>
  <rect fill="#999999" stroke="#000" stroke-width="1.5" x="19.5" y="298.45313" width="131" height="26" id="project"/>
  <rect fill="#999999" stroke="#000" stroke-width="1.5" x="14.5" y="332.45313" width="59" height="46" id="lab"/>
  <rect fill="#999999" stroke="#000" stroke-width="1.5" x="84.5" y="332.45313" width="154" height="46" id="SUB"/>
  <rect fill="#999999" stroke="#000" stroke-width="1.5" x="404.5" y="300.45313" width="55" height="77" id="project"/>
  <path fill="#ffff56" stroke="#000" stroke-width="1.5" d="m136.5,105.5l330,0l0,50l-75,0l-10,10l-80,0l-10,-10l-80,0l-10,10l-65,0l0,-60z" id="SFO"/>
  <path fill="#ffff56" stroke="#000" stroke-width="1.5" d="m132.5,175.45313l70,0l10,-10l80,0l10,10l115,0l0,35l-100,0l-10,10l-175,0l0,-45z" id="svg_21"/>
  <path fill="#ffff56" stroke="#000" stroke-width="1.5" d="m245.5,330.45313l78,0l0,-30l75,0l0,78l-153,0l0,-48z" id="SSO"/>
  <rect fill="#aa56ff" stroke="#000" stroke-width="1.5" x="469.5" y="343.45313" width="149" height="34" id="svg_23"/>
  <rect fill="#aa56ff" stroke-width="1.5" x="665.5" y="252.45313" width="31" height="22" id="svg_24" stroke="#000"/>
  <path fill="#aa56ff" stroke="#000" stroke-width="1.5" d="m624.5,339.45313l10,0l10,-10l120,0l0,49l-140,0l0,-39z" id="AMC"/>
  <path fill="#aa56ff" stroke-width="1.5" d="m479.49154,284.45313l69.17556,0l9.88222,-10l69.17556,0l13.83511,14l88.94001,0l0,32l-93.88112,0l-11.85867,12l-147,0l0,-48l3.46265,0l-1.73132,0z" id="AFI" stroke="#000"/>
  <path fill="#aa56ff" stroke="#000" stroke-width="1.5" d="m477.69181,247.69205l80,0l0,18l-15,0l-10,10l-55,0l0,-28z" id="ASI"/>
  <path fill="#aa56ff" stroke="#000" stroke-width="1.5" d="m477.38412,207.69209l75,0l10,-10l55,0l10,-10l68,0l20,20l50,0l0,30l-45,0l-10,10l-95,0l0,15l-45,0l0,-24l-93,0l0,-20l0,-11z" id="AFO"/>
  <path fill="#aa56ff" stroke="#000" stroke-width="1.5" d="m620.99936,251.99974l40,0l0,22l-20,0l-10,-10l-10,0l0,-12z" id="FDR"/>
  <path fill="#aa56ff" stroke="#000" stroke-width="1.5" d="m699.99927,252.76897l13,0l5,-5l47,0l0,28l-64.7,0l-0.3,-23z" id="ASO"/>
  <rect fill="#56ffaa" stroke-width="1.5" x="500.76871" y="36.53843" width="34.61535" height="24.99997" id="svg_34" stroke="#000"/>
  <rect fill="#56ffaa" stroke="#000" stroke-width="1.5" x="469.99951" y="66.15378" width="64.61532" height="31.53843" id="svg_35"/>
  <rect fill="#56ffaa" stroke="#000" stroke-width="1.5" x="476.15335" y="103.84605" width="54.61533" height="50.76918" id="svg_36"/>
  <rect fill="#56ffaa" stroke-width="1.5" x="643.61472" y="33.84612" width="35.38458" height="62.30763" id="svg_37" stroke="#000"/>
  <rect fill="#56ffaa" stroke="#000" stroke-width="1.5" x="643.08295" y="99.9999" width="35.38458" height="56.92302" id="svg_38"/>
  <rect fill="#56ffaa" stroke-width="1.5" x="689.07621" y="33.53843" width="33.84612" height="60.76917" id="svg_39" stroke="#000"/>
  <rect fill="#56ffaa" stroke="#000" stroke-width="1.5" x="686.68966" y="97.93103" width="35.86207" height="27.58621" id="svg_40"/>
  <rect fill="#56ffaa" stroke="#000" stroke-width="1.5" x="687.37931" y="128.27586" width="35.17241" height="26.2069" id="svg_41"/>
  <rect fill="#56ffaa" stroke="#000" stroke-width="1.5" x="731.89655" y="31.72414" width="33.7931" height="63.44828" id="svg_42"/>
  <rect fill="#56ffaa" stroke="#000" stroke-width="1.5" x="731.89655" y="97.93103" width="33.7931" height="26.89655" id="svg_43"/>
  <rect fill="#56ffaa" stroke-width="1.5" x="732.2069" y="128.27586" width="33.17241" height="26.2069" id="svg_44" stroke="#000"/>
  <path fill="#56ffaa" stroke-width="1.5" d="m552.2069,36.10345l35,0l0,59.5082l-10,9.91803l0,51.57377l-40,0l0,-51.57377l10,-9.91803l0,-59.5082l5,0z" id="svg_46" stroke="#000"/>
  <path fill="#56ffaa" stroke="#000" stroke-width="1.5" d="m595.83508,35.10345l35,0l0,122l-45,0l0,-50l10,-10l0,-62z" id="svg_47"/>
  <path stroke="#000" fill="#56ffaa" stroke-width="1.5" d="m476.55172,165.82759l145,0l0,18l-8,8l-55,0l-9,9l-73,0l0,-21l0,-14z" id="svg_48"/>
  <path fill="#999999" stroke="#000" stroke-width="1.5" d="m628.96552,165.82759l138,0l0,29l-53,0l-12,-12l-72.8,0l-0.2,-17z" id="svg_49"/>
  <rect fill="#999999" stroke-width="1.5" x="736.10345" y="288.2069" width="26.27586" height="32.72414" id="svg_50" stroke="#000"/>
  <text fill="#000000" stroke-width="0" x="232.79336" y="76.99988" id="svg_51" font-size="24" font-family="Helvetica, Arial, sans-serif" text-anchor="start" xml:space="preserve" transform="matrix(0.6102022528648376,0,0,0.5940658450126648,75.19442165829241,8.791011543944478) " stroke="#000">FIT(MF)</text>
  <text fill="#000000" stroke-width="0" stroke-opacity="null" fill-opacity="null" x="59.46302" y="105.75213" id="svg_53" font-size="24" font-family="Helvetica, Arial, sans-serif" text-anchor="start" xml:space="preserve" transform="matrix(0.5833320021629333,0,0,0.6563160419464111,26.556074424646795,21.480247378349304) " stroke="#000">RF</text>
  <text fill="#000000" stroke-width="0" stroke-opacity="null" fill-opacity="null" x="62.49874" y="279.82613" id="svg_54" font-size="24" font-family="Helvetica, Arial, sans-serif" text-anchor="start" xml:space="preserve" transform="matrix(0.626056357789853,0,0,0.6252915859222412,25.296689255034128,90.24032478407025) " stroke="#000">SMC</text>
  <text fill="#000000" stroke-width="0" stroke-opacity="null" fill-opacity="null" x="95.61505" y="101.23273" id="svg_55" font-size="24" font-family="Helvetica, Arial, sans-serif" text-anchor="start" xml:space="preserve" transform="matrix(0.5675859883896236,0,0,0.6577206998964269,44.72477223845481,24.72255510812336) " stroke="#000">RF</text>
  <text fill="#000000" stroke-width="0" stroke-opacity="null" fill-opacity="null" x="268.71891" y="145.27688" id="svg_56" font-size="24" font-family="Helvetica, Arial, sans-serif" text-anchor="start" xml:space="preserve" transform="matrix(0.7297003269195557,0,0,0.750048041343689,70.16388232633471,25.62007576227188) " stroke="#000">SFO</text>
  <text fill="#000000" stroke-width="0" stroke-opacity="null" fill-opacity="null" x="233.44478" y="208.54574" id="svg_57" font-size="24" font-family="Helvetica, Arial, sans-serif" text-anchor="start" xml:space="preserve" transform="matrix(0.7099014520645142,0,0,0.7189686894416809,66.3555100504309,47.305473572574556) " stroke="#000">SFI</text>
  <text fill="#000000" stroke-width="0" stroke-opacity="null" fill-opacity="null" x="309.88522" y="366.2661" id="svg_58" font-size="24" font-family="Helvetica, Arial, sans-serif" text-anchor="start" xml:space="preserve" transform="matrix(0.6876274347305298,0,0,0.7189686894416809,95.65921729244292,93.90836886875331) " stroke="#000">SSO</text>
  <text fill="#000000" stroke-width="0" stroke-opacity="null" fill-opacity="null" x="224.40372" y="264.0407" id="svg_59" font-size="24" font-family="Helvetica, Arial, sans-serif" text-anchor="start" xml:space="preserve" transform="matrix(0.597373956444244,0,0,0.6565172672271729,84.96643965520688,76.70935468003154) " stroke="#000">SUR</text>
  <text fill="#000000" stroke-width="0" stroke-opacity="null" fill-opacity="null" x="378.83441" y="268.90966" id="svg_60" font-size="24" font-family="Helvetica, Arial, sans-serif" text-anchor="start" xml:space="preserve" transform="matrix(0.704068124294281,0,0,0.7189686894416809,110.35484602488577,65.5725087588653) " stroke="#000">BSO</text>
  <text fill="#000000" stroke-width="0" stroke-opacity="null" fill-opacity="null" x="27.08615" y="368.38617" id="svg_61" font-size="24" font-family="Helvetica, Arial, sans-serif" text-anchor="start" xml:space="preserve" transform="matrix(0.652580976486206,0,0,0.742052435874939,11.719963621348143,86.39228182844818) " stroke="#000">Lab</text>
  <text fill="#000000" stroke-width="0" stroke-opacity="null" fill-opacity="null" x="161.61928" y="370.68082" id="svg_62" font-size="24" font-family="Helvetica, Arial, sans-serif" text-anchor="start" xml:space="preserve" transform="matrix(0.6299253106117249,0,0,0.6775655150413513,46.01647465862334,108.78637240175158) " stroke="#000">SUB</text>
  <text fill="#000000" stroke-width="0" stroke-opacity="null" fill-opacity="null" x="395.21898" y="363.13949" id="svg_63" font-size="24" font-family="Helvetica, Arial, sans-serif" text-anchor="start" xml:space="preserve" transform="matrix(0.6173114776611328,0,0,0.6133027076721191,164.7175113260746,121.04833678901196) " stroke="#000">Project</text>
  <text fill="#000000" stroke-width="0" stroke-opacity="null" fill-opacity="null" x="60.15426" y="218.88594" id="svg_64" font-size="24" font-family="Helvetica, Arial, sans-serif" text-anchor="start" xml:space="preserve" transform="matrix(0.6403735876083374,0,0,0.6133027076721191,16.256237672641873,66.91071586310863) " stroke="#000">BSI</text>
  <text fill="#000000" stroke-width="0" stroke-opacity="null" fill-opacity="null" x="54.10082" y="163.29901" id="svg_65" font-size="24" font-family="Helvetica, Arial, sans-serif" text-anchor="start" xml:space="preserve" transform="matrix(0.7302802205085754,0,0,0.6453220844268799,12.664186521433294,42.561349868774414) " stroke="#000">BSI</text>
  <text fill="#000000" stroke-width="0" stroke-opacity="null" fill-opacity="null" x="6.50936" y="126.95673" id="svg_66" font-size="24" font-family="Helvetica, Arial, sans-serif" text-anchor="start" xml:space="preserve" transform="rotate(91.62761688232422 37.883068084716804,90.18240356445311) matrix(0.4888518678412198,0,0,0.4703859641169643,16.828066145076267,34.14032765265112) " stroke="#000">Repair</text>
  <text fill="#000000" stroke-width="0" stroke-opacity="null" fill-opacity="null" x="348.4114" y="102.69299" id="svg_67" font-size="24" font-family="Helvetica, Arial, sans-serif" text-anchor="start" xml:space="preserve" transform="matrix(0.6045156119765948,0,0,0.6207128472132695,139.48340024858985,23.82190090924548) " stroke="#000">Common RSP</text>
  <text fill="#000000" stroke-width="0" stroke-opacity="null" fill-opacity="null" x="164.92689" y="103.29899" id="svg_68" font-size="24" font-family="Helvetica, Arial, sans-serif" text-anchor="start" xml:space="preserve" transform="matrix(0.6193514534140121,0,0,0.6453220844268799,61.093727067175585,21.280674934387207) " stroke="#000">ST Common RSP</text>
  <text fill="#000000" stroke-width="0" stroke-opacity="null" fill-opacity="null" x="226.98075" y="320.31121" id="svg_69" font-size="24" font-family="Helvetica, Arial, sans-serif" text-anchor="start" xml:space="preserve" transform="matrix(0.572008591405222,0,0,0.5942589941582879,89.85491127209079,110.24587368247052) " stroke="#000">SUB</text>
  <text fill="#000000" stroke-width="0" stroke-opacity="null" fill-opacity="null" x="524.2129" y="382.12414" id="svg_70" font-size="24" font-family="Helvetica, Arial, sans-serif" text-anchor="start" xml:space="preserve" transform="matrix(0.644307553768158,0,0,0.6453220844268799,186.19388021342456,118.73951592296362) " stroke="#000">ALUB</text>
  <text fill="#000000" stroke-width="0" stroke-opacity="null" fill-opacity="null" x="680.61991" y="378.97211" id="svg_71" font-size="24" font-family="Helvetica, Arial, sans-serif" text-anchor="start" xml:space="preserve" transform="matrix(0.6795151829719543,0,0,0.6453220844268799,215.14045615587384,114.7272220030427) " stroke="#000">AMC</text>
  <text fill="#000000" stroke-width="0" stroke-opacity="null" fill-opacity="null" x="500.25998" y="285.30342" id="svg_72" font-size="24" font-family="Helvetica, Arial, sans-serif" text-anchor="start" xml:space="preserve" transform="matrix(0.6189724862430523,0,0,0.5470155291887693,188.84339004072996,108.43710133476095) " stroke="#000">ASI</text>
  <text fill="#000000" stroke-width="0" stroke-opacity="null" fill-opacity="null" x="586.17811" y="280.55148" id="svg_73" font-size="24" font-family="Helvetica, Arial, sans-serif" text-anchor="start" xml:space="preserve" transform="matrix(0.5937796831130981,0,0,0.5485917329788208,234.54780265502632,103.23142806440592) " stroke="#000">RF</text>
  <text fill="#000000" stroke-width="0" stroke-opacity="null" fill-opacity="null" x="668.54325" y="213.09336" id="svg_74" font-size="24" font-family="Helvetica, Arial, sans-serif" text-anchor="start" xml:space="preserve" transform="matrix(0.6289436114485766,0,0,0.5791486215192769,224.51357840765772,98.65223924697955) " stroke="#000">AFO</text>
  <text fill="#000000" stroke-width="0" stroke-opacity="null" fill-opacity="null" x="575.54218" y="319.0768" id="svg_75" font-size="24" font-family="Helvetica, Arial, sans-serif" text-anchor="start" xml:space="preserve" transform="matrix(0.7996565163250227,0,0,0.6888468189722232,107.11878088412483,87.26048199543591) " stroke="#000">AFI</text>
  <text fill="#000000" stroke-width="0" stroke-opacity="null" fill-opacity="null" x="721.29407" y="278.52343" id="svg_76" font-size="24" font-family="Helvetica, Arial, sans-serif" text-anchor="start" xml:space="preserve" transform="matrix(0.5751977461707057,0,0,0.5727460745744395,303.08543687974964,105.63492166226607) " stroke="#000">ASO</text>
  <text fill="#000000" stroke-width="0" stroke-opacity="null" fill-opacity="null" x="630.48337" y="286.23265" id="svg_77" font-size="24" font-family="Helvetica, Arial, sans-serif" text-anchor="start" xml:space="preserve" transform="matrix(0.5029657465830368,0,0,0.47536249621985976,313.9157129130289,127.38420965961447) " stroke="#000">FDR</text>
  <text fill="#000000" stroke-width="0" stroke-opacity="null" fill-opacity="null" x="496.33609" y="204.42016" id="svg_78" font-size="24" font-family="Helvetica, Arial, sans-serif" text-anchor="start" xml:space="preserve" transform="matrix(0.608751118183136,0,0,0.580835223197937,196.98158546723425,67.06636428833008) " stroke="#000">HD/LG</text>
  <text fill="#000000" stroke-width="0" stroke-opacity="null" fill-opacity="null" x="506.087" y="80.69717" id="svg_79" font-size="24" font-family="Helvetica, Arial, sans-serif" text-anchor="start" xml:space="preserve" transform="matrix(0.4810178279876709,0,0,0.48410487174987793,262.645524520427,13.453577641397715) " stroke="#000">FDR</text>
  <text fill="#000000" stroke-width="0" stroke-opacity="null" fill-opacity="null" x="482.88475" y="102.79985" id="svg_80" font-size="24" font-family="Helvetica, Arial, sans-serif" text-anchor="start" xml:space="preserve" transform="matrix(0.5846851468086243,0,0,0.5488531589508057,205.49000220559537,29.41618387028575) " stroke="#000">FDR</text>
  <text fill="#000000" stroke-width="0" stroke-opacity="null" fill-opacity="null" x="545.68278" y="106.85792" id="svg_81" font-size="24" font-family="Helvetica, Arial, sans-serif" text-anchor="start" xml:space="preserve" transform="rotate(1.194291591644287 568.010314941405,77.15356445312511) matrix(0.421738268907599,0,0,0.5498701496231493,320.7530604158087,23.30494955162807) " stroke="#000">HD&amp;DL</text>
  <text fill="#000000" stroke-width="0" stroke-opacity="null" fill-opacity="null" x="493.04352" y="131.30437" id="svg_82" font-size="24" font-family="Helvetica, Arial, sans-serif" text-anchor="start" xml:space="preserve" transform="matrix(0.45917102694511414,0,0,0.4196179807186126,254.47166875842964,78.37071683444083) " stroke="#000">DL Laser</text>
  <text fill="#000000" stroke-width="0" stroke-opacity="null" fill-opacity="null" x="526.94778" y="160.61373" id="svg_83" font-size="24" font-family="Helvetica, Arial, sans-serif" text-anchor="start" xml:space="preserve" transform="matrix(0.41661489397860674,0,0,0.4463250091400106,318.6790167587362,60.64541259199052) " stroke="#000">HD&amp;TG</text>
  <text fill="#000000" stroke-width="0" stroke-opacity="null" fill-opacity="null" x="602.46888" y="117.1553" id="svg_84" font-size="24" font-family="Helvetica, Arial, sans-serif" text-anchor="start" xml:space="preserve" transform="matrix(0.6335457563400269,0,0,0.6453220844268799,217.9601131118834,28.98937775567174) " stroke="#000">DR</text>
  <text fill="#000000" stroke-width="0" stroke-opacity="null" fill-opacity="null" x="649.01918" y="96.23499" id="svg_85" font-size="24" font-family="Helvetica, Arial, sans-serif" text-anchor="start" xml:space="preserve" transform="matrix(0.3888059370649621,0,0,0.47034296050221147,395.1516710188511,25.66556195546066) " stroke="#000">HD/LG</text>
  <text fill="#000000" stroke-width="0" stroke-opacity="null" fill-opacity="null" x="651.00684" y="141.84381" id="svg_86" font-size="24" font-family="Helvetica, Arial, sans-serif" text-anchor="start" xml:space="preserve" transform="matrix(0.5604478716850281,0,0,0.5488531589508057,284.74736312404275,48.639268800616264) " stroke="#000">DR</text>
  <text fill="#000000" stroke-width="0" stroke-opacity="null" fill-opacity="null" x="733.1986" y="120.63158" id="svg_87" font-size="24" font-family="Helvetica, Arial, sans-serif" text-anchor="start" xml:space="preserve" transform="matrix(0.48133444249433666,0,0,0.44517987140264464,341.276511729331,54.672540160260375) " stroke="#000">DR</text>
  <text fill="#000000" stroke-width="0" stroke-opacity="null" fill-opacity="null" x="719.19767" y="178.67952" id="svg_88" font-size="24" font-family="Helvetica, Arial, sans-serif" text-anchor="start" xml:space="preserve" transform="matrix(0.44311263785558097,0,0,0.42360479146386565,378.04711668296045,62.57390933706715) " stroke="#000">DR</text>
  <text fill="#000000" stroke-width="0" stroke-opacity="null" fill-opacity="null" x="815.98111" y="113.62391" id="svg_89" font-size="24" font-family="Helvetica, Arial, sans-serif" text-anchor="start" xml:space="preserve" transform="matrix(0.4615563023310898,0,0,0.45270979627355246,363.69389116928556,57.91831695618843) " stroke="#000">DR</text>
  <text fill="#000000" stroke-width="0" stroke-opacity="null" fill-opacity="null" x="811.64794" y="169.86953" id="svg_90" font-size="24" font-family="Helvetica, Arial, sans-serif" text-anchor="start" xml:space="preserve" transform="matrix(0.4615563023310898,0,0,0.4286740210326343,363.69389116928556,66.33153158574763) " stroke="#000">DR</text>
  <text stroke="#000" transform="matrix(0.6428571343421934,0,0,0.6296296119689941,227.75000545382497,50.24190025776624) " xml:space="preserve" text-anchor="start" font-family="Helvetica, Arial, sans-serif" font-size="24" id="INR" y="147.80607" x="652.94444" fill-opacity="null" stroke-opacity="null" stroke-width="0" fill="#000000">INR</text>
  <text stroke="#000" transform="matrix(0.5441932265543696,0,0,0.5193266943682033,297.69723483662824,59.737278796673) " xml:space="preserve" text-anchor="start" font-family="Helvetica, Arial, sans-serif" font-size="24" id="INR" y="116.71603" x="728.31178" fill-opacity="null" stroke-opacity="null" stroke-width="0" fill="#000000">INR</text>
  <text stroke="#000" transform="matrix(0.5441932265543696,0,0,0.5193266943682033,297.69723483662824,59.737278796673) " xml:space="preserve" text-anchor="start" font-family="Helvetica, Arial, sans-serif" font-size="24" id="INR" y="172.55757" x="728.31177" fill-opacity="null" stroke-opacity="null" stroke-width="0" fill="#000000">INR</text>
  <text stroke="#000" transform="matrix(0.5441932265543696,0,0,0.5193266943682033,297.69723483662824,59.737278796673) " xml:space="preserve" text-anchor="start" font-family="Helvetica, Arial, sans-serif" font-size="24" id="INR" y="118.6416" x="809.16541" fill-opacity="null" stroke-opacity="null" stroke-width="0" fill="#000000">INR</text>
  <text stroke="#000" transform="matrix(0.5441932265543696,0,0,0.5193266943682033,297.69723483662824,59.737278796673) " xml:space="preserve" text-anchor="start" font-family="Helvetica, Arial, sans-serif" font-size="24" id="INR" y="174.48314" x="807.32782" fill-opacity="null" stroke-opacity="null" stroke-width="0" fill="#000000">INR</text>
  <text stroke="#000" transform="matrix(0.5604040622711182,0,0,0.6296296119689941,304.42018687725067,16.0937507674098) " xml:space="preserve" text-anchor="start" font-family="Helvetica, Arial, sans-serif" font-size="24" id="FR" y="67.04136" x="699.6377" fill-opacity="null" stroke-opacity="null" stroke-width="0" fill="#000000">FR</text>
  <text stroke="#000" transform="matrix(0.5473032593727111,0,0,0.5925925970077515,340.4049591124058,-29.11169047467412) " xml:space="preserve" text-anchor="start" font-family="Helvetica, Arial, sans-serif" font-size="24" id="DR" y="171.45313" x="650.6357" fill-opacity="null" stroke-opacity="null" stroke-width="0" fill="#000000">DR</text>
  <text stroke="#000" transform="matrix(0.5668550245139983,0,0,0.6758490167592264,270.43612183060003,24.545452695372777) " xml:space="preserve" text-anchor="start" font-family="Helvetica, Arial, sans-serif" font-size="24" id="RR" y="53.46536" x="824.30597" fill-opacity="null" stroke-opacity="null" stroke-width="0" fill="#000000">RR</text>
  <text stroke="#000" transform="matrix(0.5721177394794389,0,0,0.5986069553664137,258.14488972054005,40.819692619716236) " xml:space="preserve" text-anchor="start" font-family="Helvetica, Arial, sans-serif" font-size="24" id="DR" y="57.3264" x="838.88203" fill-opacity="null" stroke-opacity="null" stroke-width="0" fill="#000000">DR</text>
  <text stroke="#000" transform="matrix(0.664103369659493,0,0,0.5652165792535797,220.51224005375332,79.20265612968805) " xml:space="preserve" text-anchor="start" font-family="Helvetica, Arial, sans-serif" font-size="24" id="Project" y="176.9916" x="687.62737" fill-opacity="null" stroke-opacity="null" stroke-width="0" fill="#000000">Project</text>
  <text stroke="#000" transform="matrix(0.3861755906164852,0,0,0.3461982492212835,407.4693003275621,200.32913683123982) " xml:space="preserve" text-anchor="start" font-family="Helvetica, Arial, sans-serif" font-size="24" id="Project" y="182.29441" x="666.77754" fill-opacity="null" stroke-opacity="null" stroke-width="0" fill="#000000">Project</text>
  <text stroke="#000" transform="matrix(0.2787289336368884,0,0,0.36210101005733536,492.7531755852174,192.9197926534278) " xml:space="preserve" text-anchor="start" font-family="Helvetica, Arial, sans-serif" font-size="24" id="Project" y="312.87197" x="880.29179" fill-opacity="null" stroke-opacity="null" stroke-width="0" fill="#000000">Project</text>
 </g>
</svg>
