<svg width="900" height="500" xmlns="http://www.w3.org/2000/svg">
 <!-- Created with Method Draw - http://github.com/duopixel/Method-Draw/ -->

 <g>
  <title>background</title>
  <rect x="-1" y="-1" width="902" height="502" id="canvas_background" fill="#fff"/>
  <g id="canvasGrid" display="none">
   <rect id="svg_4" width="100%" height="100%" x="0" y="0" stroke-width="0" fill="url(#gridpattern)"/>
  </g>
 </g>
 <g>
  <title>Layer 1</title>
  <rect fill="#56aaff" stroke="#000" stroke-width="1.5" x="30" y="37" width="460" height="25" id="FIT"/>
  <rect fill="#56aaff" stroke="#000" stroke-width="1.5" x="324.5" y="68.45313" width="141" height="28" id="Common RSP"/>
  <rect fill="#ffff56" stroke="#000" stroke-width="1.5" x="53.5" y="66.45313" width="34" height="43" id="RF"/>
  <rect fill="#ffff56" stroke="#000" stroke-width="1.5" x="92.5" y="66.45313" width="34" height="43" id="RF"/>
  <rect fill="#ffff56" stroke="#000" stroke-width="1.5" x="135.5" y="68.45313" width="178" height="28" id="ST Common RSP"/>
  <rect fill="#ffff56" stroke="#000" stroke-width="1.5" x="19.5" y="173.45313" width="99" height="52" id="BSI Y"/>
  <rect fill="#ffff56" stroke="#000" stroke-width="1.5" x="19.5" y="233.1198" width="131" height="57" id="SMC"/>
  <rect fill="#ffff56" stroke="#000" stroke-width="1.5" x="158.5" y="229.45313" width="153" height="37" id="SUR"/>
  <rect fill="#ffff56" stroke="#000" stroke-width="1.5" x="158.5" y="273.45313" width="153" height="44" id="SUB"/>
  <rect fill="#ffff56" stroke="#000" stroke-width="1.5" x="323.5" y="218.45313" width="145" height="73" id="BSO"/>
  <rect fill="#999999" stroke="#000" stroke-width="1.5" x="26.5" y="69.45313" width="20" height="40" id="REPAIR"/>
  <rect fill="#999999" stroke="#000" stroke-width="1.5" x="19.5" y="120.45313" width="99" height="43" id="BSI G"/>
  <rect fill="#999999" stroke="#000" stroke-width="1.5" x="19.5" y="298.45313" width="131" height="26" id="project"/>
  <rect fill="#999999" stroke="#000" stroke-width="1.5" x="14.5" y="332.45313" width="59" height="46" id="lab"/>
  <rect fill="#999999" stroke="#000" stroke-width="1.5" x="84.5" y="332.45313" width="154" height="46" id="SUB"/>
  <rect fill="#999999" stroke="#000" stroke-width="1.5" x="407.5" y="300.45313" width="55" height="77" id="project"/>
  <path fill="#ffff56" stroke="#000" stroke-width="1.5" d="m136.5,105.5l330,0l0,50l-75,0l-10,10l-80,0l-10,-10l-80,0l-10,10l-65,0l0,-60z" id="SFO"/>
  <path fill="#ffff56" stroke="#000" stroke-width="1.5" d="m132.5,175.45313 l 70,0 l 10,-10 l 80,0 l 10,10 l 115,0 l 0,35 l -100,0 l -10,10 l -175,0z" id="SFI"/>
  <path fill="#ffff56" stroke="#000" stroke-width="1.5" d="m245.5,330.45313 l 78,0 l 0,-30 l 75,0 l 0,78 l -153,0 z" id="SSO"/>
  <rect fill="#aa56ff" stroke="#000" stroke-width="1.5" x="469.5" y="343.45313" width="149" height="34" id="ALUB"/>
  <rect fill="#aa56ff" stroke="#000" stroke-width="1.5" x="664.5" y="251.45313" width="32" height="22" id="PROJECT"/>
  <path fill="#aa56ff" stroke="#000" stroke-width="1.5" d="m624.5,339.45313 l 10,0 l 10,-10 l 120,0 l 0,49 l -140,0 z" id="AMC"/>
  <path fill="#aa56ff" stroke="#000" stroke-width="1.5" d="m477.5,284.45313 l 70,0 l 10,-10 l 70,0 l 14,14 l 90,0 l 0,32 l -95,0 l-12,12 l-146,0 z" id="AFI"/>
  <path fill="#aa56ff" stroke="#000" stroke-width="1.5" d="m477.69181,247.69205 l 80,0 l 0,18 l -15,0 l -10,10 l -55,0z" id="ASI"/>
  <path fill="#aa56ff" stroke="#000" stroke-width="1.5" d="m477.38412,207.69209 l 75,0 l 10,-10 l 55,0 l 10,-10 l 68,0 l 20,20 l 50,0 l 0,30 l -45,0 l -10,10 l -95,0 l 0,15 l -45,0 l 0,-24 l -92,0 z" id="AFO"/>
  <path fill="#aa56ff" stroke="#000" stroke-width="1.5" d="m620.99936,251.99974 l 40,0 l 0,22 l -20,0 l -10,-10 l-10,0 z" id="FDR"/>
  <path fill="#aa56ff" stroke="#000" stroke-width="1.5" d="m699.99927,253.76897 l 13,0 l 5,-5 l 47,0 l 0,28 l -64.7,0 z" id="ASO"/>
  <rect fill="#56ffaa" stroke="#000" stroke-width="1.5" x="500.76871" y="35.53843" width="34.61535" height="26.99997" id="FDR"/>
  <rect fill="#56ffaa" stroke="#000" stroke-width="1.5" x="469.99951" y="66.15378" width="64.61532" height="31.53843" id="FDR"/>
  <rect fill="#56ffaa" stroke="#000" stroke-width="1.5" x="476.15335" y="104.84605" width="54.61533" height="50.76918" id="DL LASER"/>
  <rect fill="#56ffaa" stroke="#000" stroke-width="1.5" x="642.61472" y="33.84612" width="35.88458" height="62.30763" id="HD/LG"/>
  <rect fill="#56ffaa" stroke="#000" stroke-width="1.5" x="642.61472" y="99.9999" width="35.88458" height="55.92302" id="DR INR"/>
  <rect fill="#56ffaa" stroke="#000" stroke-width="1.5" x="686.07621" y="33.83843" width="35.84612" height="60.76917" id="FR DR"/>
  <rect fill="#56ffaa" stroke="#000" stroke-width="1.5" x="686.68966" y="97.93103" width="35.86207" height="27.58621" id="DR INR"/>
  <rect fill="#56ffaa" stroke="#000" stroke-width="1.5" x="686.37931" y="128.27586" width="35.87241" height="26.2069" id="DR INR"/>
  <rect fill="#56ffaa" stroke="#000" stroke-width="1.5" x="729.89655" y="33.82414" width="35.7931" height="60.74828" id="RR DR"/>
  <rect fill="#56ffaa" stroke="#000" stroke-width="1.5" x="729.89655" y="97.93103" width="35.7931" height="26.89655" id="DR INR"/>
  <rect fill="#56ffaa" stroke="#000" stroke-width="1.5" x="729.89655" y="128.27586" width="35.87241" height="26.2069" id="DR INR"/>
  <path fill="#56ffaa" stroke="#000" stroke-width="1.5" d="m552.2069,35.10345 l 35,0 l 0,60 l -10,10 l 0,52 l -40,0 l 0,-52 l 10,-10 l 0,-60z" id="HD&DL"/>
  <path fill="#56ffaa" stroke="#000" stroke-width="1.5" d="m595.83508,35.10345 l 35,0 l 0,122  l -45,0 l 0,-50 l 10,-10 l 0,-62 z" id="DR"/>
  <path stroke="#000" fill="#56ffaa" stroke-width="1.5" d="m476.55172,165.82759 l 145,0 l 0,18 l -8,8 l -55,0 l -9,9 l -71.5,0z" id="HD/LG"/>
  <path fill="#999999" stroke="#000" stroke-width="1.5" d="m628.96552,165.82759 l 138,0 l 0,29 l -53,0 l -12,-12 l -72.8,0z " id="Project"/>
  <rect fill="#999999" stroke="#000" stroke-width="1.5" x="736.10345" y="289.2069" width="28.27586" height="31.72414" id="svg_50"/>
  <text fill="#000000" stroke-width="0" x="206.57255" y="76.99988" id="svg_51" font-size="24" font-family="Helvetica, Arial, sans-serif" text-anchor="start" xml:space="preserve" transform="matrix(0.6102022528648376,0,0,0.5940658450126648,75.19442165829241,8.791011543944478) " stroke="#000">FIT(MF)</text>
  <text fill="#000000" stroke-width="0" stroke-opacity="null" fill-opacity="null" x="59.46302" y="105.75213" id="svg_53" font-size="24" font-family="Helvetica, Arial, sans-serif" text-anchor="start" xml:space="preserve" transform="matrix(0.5833320021629333,0,0,0.6563160419464111,26.556074424646795,21.480247378349304) " stroke="#000">RF</text>
  <text fill="#000000" stroke-width="0" stroke-opacity="null" fill-opacity="null" x="62.49874" y="279.82613" id="svg_54" font-size="24" font-family="Helvetica, Arial, sans-serif" text-anchor="start" xml:space="preserve" transform="matrix(0.626056357789853,0,0,0.6252915859222412,25.296689255034128,90.24032478407025) " stroke="#000">SMC</text>
  <text fill="#000000" stroke-width="0" stroke-opacity="null" fill-opacity="null" x="95.61505" y="101.23273" id="svg_55" font-size="24" font-family="Helvetica, Arial, sans-serif" text-anchor="start" xml:space="preserve" transform="matrix(0.5675859883896236,0,0,0.6577206998964269,44.72477223845481,24.72255510812336) " stroke="#000">RF</text>
  <text fill="#000000" stroke-width="0" stroke-opacity="null" fill-opacity="null" x="268.71891" y="145.27688" id="svg_56" font-size="24" font-family="Helvetica, Arial, sans-serif" text-anchor="start" xml:space="preserve" transform="matrix(0.7297003269195557,0,0,0.750048041343689,70.16388232633471,25.62007576227188) " stroke="#000">SFO</text>
  <text fill="#000000" stroke-width="0" stroke-opacity="null" fill-opacity="null" x="233.44478" y="208.54574" id="svg_57" font-size="24" font-family="Helvetica, Arial, sans-serif" text-anchor="start" xml:space="preserve" transform="matrix(0.7099014520645142,0,0,0.7189686894416809,66.3555100504309,47.305473572574556) " stroke="#000">SFI</text>
  <text fill="#000000" stroke-width="0" stroke-opacity="null" fill-opacity="null" x="309.88522" y="366.2661" id="svg_58" font-size="24" font-family="Helvetica, Arial, sans-serif" text-anchor="start" xml:space="preserve" transform="matrix(0.6876274347305298,0,0,0.7189686894416809,95.65921729244292,93.90836886875331) " stroke="#000">SSO</text>
  <text fill="#000000" stroke-width="0" stroke-opacity="null" fill-opacity="null" x="224.40372" y="264.0407" id="svg_59" font-size="24" font-family="Helvetica, Arial, sans-serif" text-anchor="start" xml:space="preserve" transform="matrix(0.597373956444244,0,0,0.6565172672271729,84.96643965520688,76.70935468003154) " stroke="#000">SUR</text>
  <text fill="#000000" stroke-width="0" stroke-opacity="null" fill-opacity="null" x="378.83441" y="268.90966" id="svg_60" font-size="24" font-family="Helvetica, Arial, sans-serif" text-anchor="start" xml:space="preserve" transform="matrix(0.704068124294281,0,0,0.7189686894416809,110.35484602488577,65.5725087588653) " stroke="#000">BSO</text>
  <text fill="#000000" stroke-width="0" stroke-opacity="null" fill-opacity="null" x="27.08615" y="368.38617" id="svg_61" font-size="24" font-family="Helvetica, Arial, sans-serif" text-anchor="start" xml:space="preserve" transform="matrix(0.652580976486206,0,0,0.742052435874939,11.719963621348143,86.39228182844818) " stroke="#000">Lab</text>
  <text fill="#000000" stroke-width="0" stroke-opacity="null" fill-opacity="null" x="161.61928" y="370.68082" id="svg_62" font-size="24" font-family="Helvetica, Arial, sans-serif" text-anchor="start" xml:space="preserve" transform="matrix(0.6299253106117249,0,0,0.6775655150413513,46.01647465862334,108.78637240175158) " stroke="#000">SUB</text>
  <text fill="#000000" stroke-width="0" stroke-opacity="null" fill-opacity="null" x="395.21898" y="363.13949" id="svg_63" font-size="24" font-family="Helvetica, Arial, sans-serif" text-anchor="start" xml:space="preserve" transform="matrix(0.6173114776611328,0,0,0.6133027076721191,164.7175113260746,121.04833678901196) " stroke="#000">Project</text>
  <text fill="#000000" stroke-width="0" stroke-opacity="null" fill-opacity="null" x="60.15426" y="218.88594" id="svg_64" font-size="24" font-family="Helvetica, Arial, sans-serif" text-anchor="start" xml:space="preserve" transform="matrix(0.6403735876083374,0,0,0.6133027076721191,16.256237672641873,66.91071586310863) " stroke="#000">BSI</text>
  <text fill="#000000" stroke-width="0" stroke-opacity="null" fill-opacity="null" x="54.10082" y="163.29901" id="svg_65" font-size="24" font-family="Helvetica, Arial, sans-serif" text-anchor="start" xml:space="preserve" transform="matrix(0.7302802205085754,0,0,0.6453220844268799,12.664186521433294,42.561349868774414) " stroke="#000">BSI</text>
  <text fill="#000000" stroke-width="0" stroke-opacity="null" fill-opacity="null" x="6.50936" y="126.95673" id="svg_66" font-size="24" font-family="Helvetica, Arial, sans-serif" text-anchor="start" xml:space="preserve" transform="rotate(91.62761688232422 37.9222984313965,91.44682312011717) matrix(0.4888518678412198,0,0,0.4703859641169643,16.828066145076267,34.14032765265112) " stroke="#000">Repair</text>
  <text fill="#000000" stroke-width="0" stroke-opacity="null" fill-opacity="null" x="340.14031" y="101.08194" id="svg_67" font-size="24" font-family="Helvetica, Arial, sans-serif" text-anchor="start" xml:space="preserve" transform="matrix(0.6045156119765949,0,0,0.6207128472132695,139.48340024858987,22.82190090924548) " stroke="#000">Common RSP</text>
  <text fill="#000000" stroke-width="0" stroke-opacity="null" fill-opacity="null" x="164.92689" y="103.29899" id="svg_68" font-size="24" font-family="Helvetica, Arial, sans-serif" text-anchor="start" xml:space="preserve" transform="matrix(0.6193514534140121,0,0,0.6453220844268799,61.093727067175585,21.280674934387207) " stroke="#000">ST Common RSP</text>
  <text fill="#000000" stroke-width="0" stroke-opacity="null" fill-opacity="null" x="226.98075" y="320.31121" id="svg_69" font-size="24" font-family="Helvetica, Arial, sans-serif" text-anchor="start" xml:space="preserve" transform="matrix(0.572008591405222,0,0,0.5942589941582879,89.85491127209079,110.24587368247052) " stroke="#000">SUB</text>
  <text fill="#000000" stroke-width="0" stroke-opacity="null" fill-opacity="null" x="514.90058" y="382.12414" id="svg_70" font-size="24" font-family="Helvetica, Arial, sans-serif" text-anchor="start" xml:space="preserve" transform="matrix(0.644307553768158,0,0,0.6453220844268799,186.19388021342456,118.73951592296362) " stroke="#000">ALUB</text>
  <text fill="#000000" stroke-width="0" stroke-opacity="null" fill-opacity="null" x="674.73336" y="368.12481" id="svg_71" font-size="24" font-family="Helvetica, Arial, sans-serif" text-anchor="start" xml:space="preserve" transform="matrix(0.6795151829719543,0,0,0.6453220844268799,215.14045615587384,114.7272220030427) " stroke="#000">AMC</text>
  <text fill="#000000" stroke-width="0" stroke-opacity="null" fill-opacity="null" x="500.25998" y="285.30342" id="svg_72" font-size="24" font-family="Helvetica, Arial, sans-serif" text-anchor="start" xml:space="preserve" transform="matrix(0.6189724862430523,0,0,0.5470155291887693,188.84339004072996,108.43710133476095) " stroke="#000">ASI</text>
  <text fill="#000000" stroke-width="0" stroke-opacity="null" fill-opacity="null" x="586.17811" y="280.55148" id="svg_73" font-size="24" font-family="Helvetica, Arial, sans-serif" text-anchor="start" xml:space="preserve" transform="matrix(0.5937796831130981,0,0,0.5485917329788208,234.54780265502632,103.23142806440592) " stroke="#000">RF</text>
  <text fill="#000000" stroke-width="0" stroke-opacity="null" fill-opacity="null" x="611.30441" y="220.00005" id="svg_74" font-size="24" font-family="Helvetica, Arial, sans-serif" text-anchor="start" xml:space="preserve" transform="matrix(0.6289436114485766,0,0,0.5791486215192769,224.51357840765772,98.65223924697955) " stroke="#000">AFO</text>
  <text fill="#000000" stroke-width="0" stroke-opacity="null" fill-opacity="null" x="575.54218" y="319.0768" id="svg_75" font-size="24" font-family="Helvetica, Arial, sans-serif" text-anchor="start" xml:space="preserve" transform="matrix(0.6358138918876648,0,0,0.580835223197937,203.30689485371113,117.72635723464191) " stroke="#000">AFI</text>
  <text fill="#000000" stroke-width="0" stroke-opacity="null" fill-opacity="null" x="721.29407" y="278.52343" id="svg_76" font-size="24" font-family="Helvetica, Arial, sans-serif" text-anchor="start" xml:space="preserve" transform="matrix(0.5751977461707057,0,0,0.5727460745744395,303.08543687974964,105.63492166226607) " stroke="#000">ASO</text>
  <text fill="#000000" stroke-width="0" stroke-opacity="null" fill-opacity="null" x="630.48337" y="286.23265" id="svg_77" font-size="24" font-family="Helvetica, Arial, sans-serif" text-anchor="start" xml:space="preserve" transform="matrix(0.5029657465830368,0,0,0.47536249621985976,313.9157129130289,127.38420965961447) " stroke="#000">FDR</text>
  <text fill="#000000" stroke-width="0" stroke-opacity="null" fill-opacity="null" x="496.33609" y="202.6985" id="svg_78" font-size="24" font-family="Helvetica, Arial, sans-serif" text-anchor="start" xml:space="preserve" transform="matrix(0.608751118183136,0,0,0.580835223197937,196.98158546723425,67.06636428833008) " stroke="#000">HD/LG</text>
  <text fill="#000000" stroke-width="0" stroke-opacity="null" fill-opacity="null" x="506.087" y="76.56583" id="svg_79" font-size="24" font-family="Helvetica, Arial, sans-serif" text-anchor="start" xml:space="preserve" transform="matrix(0.4810178279876709,0,0,0.48410487174987793,262.645524520427,13.453577641397715) " stroke="#000">FDR</text>
  <text fill="#000000" stroke-width="0" stroke-opacity="null" fill-opacity="null" x="482.88475" y="102.79985" id="svg_80" font-size="24" font-family="Helvetica, Arial, sans-serif" text-anchor="start" xml:space="preserve" transform="matrix(0.5846851468086243,0,0,0.5488531589508057,205.49000220559537,29.41618387028575) " stroke="#000">FDR</text>
  <text fill="#000000" stroke-width="0" stroke-opacity="null" fill-opacity="null" x="536.27107" y="106.76256" id="svg_81" font-size="24" font-family="Helvetica, Arial, sans-serif" text-anchor="start" xml:space="preserve" transform="rotate(1.194291591644287 561.8092041015618,76.53527832031398) matrix(0.3705187378205856,0,0,0.47567386413840745,347.80562103984846,29.23527572753285) " stroke="#000">HD&amp;DL</text>
  <text fill="#000000" stroke-width="0" stroke-opacity="null" fill-opacity="null" x="493.04352" y="131.30437" id="svg_82" font-size="24" font-family="Helvetica, Arial, sans-serif" text-anchor="start" xml:space="preserve" transform="matrix(0.45917102694511414,0,0,0.4196179807186126,254.47166875842964,78.37071683444083) " stroke="#000">DL Laser</text>
  <text fill="#000000" stroke-width="0" stroke-opacity="null" fill-opacity="null" x="531.74838" y="162.85425" id="svg_83" font-size="24" font-family="Helvetica, Arial, sans-serif" text-anchor="start" xml:space="preserve" transform="matrix(0.3377628594305627,0,0,0.42336957399203207,359.94073534059385,63.696511259776315) " stroke="#000">HD&amp;TG</text>
  <text fill="#000000" stroke-width="0" stroke-opacity="null" fill-opacity="null" x="596.15521" y="115.60569" id="svg_84" font-size="24" font-family="Helvetica, Arial, sans-serif" text-anchor="start" xml:space="preserve" transform="matrix(0.6335457563400269,0,0,0.6453220844268799,217.9601131118834,28.98937775567174) " stroke="#000">DR</text>
  <text fill="#000000" stroke-width="0" stroke-opacity="null" fill-opacity="null" x="625.87138" y="96.23499" id="svg_85" font-size="24" font-family="Helvetica, Arial, sans-serif" text-anchor="start" xml:space="preserve" transform="matrix(0.3888059370649621,0,0,0.4226452029068284,395.1516710188511,28.888677041558495) " stroke="#000">HD/LG</text>
  <text fill="#000000" stroke-width="0" stroke-opacity="null" fill-opacity="null" x="638.51683" y="132.7339" id="svg_86" font-size="24" font-family="Helvetica, Arial, sans-serif" text-anchor="start" xml:space="preserve" transform="matrix(0.5604478716850281,0,0,0.5488531589508057,284.74736312404275,48.639268800616264) " stroke="#000">DR</text>
  <text fill="#000000" stroke-width="0" stroke-opacity="null" fill-opacity="null" x="722.81081" y="120.63158" id="svg_87" font-size="24" font-family="Helvetica, Arial, sans-serif" text-anchor="start" xml:space="preserve" transform="matrix(0.48133444249433666,0,0,0.44517987140264464,341.276511729331,54.672540160260375) " stroke="#000">DR</text>
  <text fill="#000000" stroke-width="0" stroke-opacity="null" fill-opacity="null" x="719.19767" y="178.67952" id="svg_88" font-size="24" font-family="Helvetica, Arial, sans-serif" text-anchor="start" xml:space="preserve" transform="matrix(0.44311263785558097,0,0,0.4236047914638657,372.0471166829604,62.573909337067164) " stroke="#000">DR</text>
  <text fill="#000000" stroke-width="0" stroke-opacity="null" fill-opacity="null" x="802.98161" y="113.62391" id="svg_89" font-size="24" font-family="Helvetica, Arial, sans-serif" text-anchor="start" xml:space="preserve" transform="matrix(0.4615563023310898,0,0,0.45270979627355246,363.69389116928556,57.91831695618843) " stroke="#000">DR</text>
  <text fill="#000000" stroke-width="0" stroke-opacity="null" fill-opacity="null" x="802.98161" y="169.86953" id="svg_90" font-size="24" font-family="Helvetica, Arial, sans-serif" text-anchor="start" xml:space="preserve" transform="matrix(0.4615563023310898,0,0,0.4286740210326343,363.69389116928556,66.33153158574763) " stroke="#000">DR</text>
  <text stroke="#000" transform="matrix(0.6428571343421934,0,0,0.6296296119689941,227.75000545382497,50.24190025776624) " xml:space="preserve" text-anchor="start" font-family="Helvetica, Arial, sans-serif" font-size="24" id="svg_27" y="141.45313" x="640.5" fill-opacity="null" stroke-opacity="null" stroke-width="0" fill="#000000">INR</text>
  <text stroke="#000" transform="matrix(0.5441932265543696,0,0,0.5193266943682033,297.69723483662824,59.737278796673) " xml:space="preserve" text-anchor="start" font-family="Helvetica, Arial, sans-serif" font-size="24" id="svg_28" y="116.71603" x="715.4487" fill-opacity="null" stroke-opacity="null" stroke-width="0" fill="#000000">INR</text>
  <text stroke="#000" transform="matrix(0.5441932265543696,0,0,0.5193266943682033,297.69723483662824,59.737278796673) " xml:space="preserve" text-anchor="start" font-family="Helvetica, Arial, sans-serif" font-size="24" id="svg_45" y="172.55757" x="719.12386" fill-opacity="null" stroke-opacity="null" stroke-width="0" fill="#000000">INR</text>
  <text stroke="#000" transform="matrix(0.5441932265543696,0,0,0.5193266943682033,297.69723483662824,59.737278796673) " xml:space="preserve" text-anchor="start" font-family="Helvetica, Arial, sans-serif" font-size="24" id="svg_52" y="118.6416" x="801.81508" fill-opacity="null" stroke-opacity="null" stroke-width="0" fill="#000000">INR</text>
  <text stroke="#000" transform="matrix(0.5441932265543696,0,0,0.5193266943682033,297.69723483662824,59.737278796673) " xml:space="preserve" text-anchor="start" font-family="Helvetica, Arial, sans-serif" font-size="24" id="svg_92" y="174.48314" x="799.97749" fill-opacity="null" stroke-opacity="null" stroke-width="0" fill="#000000">INR</text>
  <text stroke="#000" transform="matrix(0.5604040622711182,0,0,0.6296296119689941,304.42018687725067,16.0937507674098) " xml:space="preserve" text-anchor="start" font-family="Helvetica, Arial, sans-serif" font-size="24" id="svg_93" y="65.45313" x="690.71557" fill-opacity="null" stroke-opacity="null" stroke-width="0" fill="#000000">FR</text>
  <text stroke="#000" transform="matrix(0.5473032593727111,0,0,0.5925925970077515,340.4049591124058,-29.11169047467412) " xml:space="preserve" text-anchor="start" font-family="Helvetica, Arial, sans-serif" font-size="24" id="svg_94" y="171.45313" x="641.5" fill-opacity="null" stroke-opacity="null" stroke-width="0" fill="#000000">DR</text>
  <text stroke="#000" transform="matrix(0.5668550245139983,0,0,0.6758490167592264,270.43612183060003,24.545452695372777) " xml:space="preserve" text-anchor="start" font-family="Helvetica, Arial, sans-serif" font-size="24" id="svg_95" y="47.54688" x="817.24949" fill-opacity="null" stroke-opacity="null" stroke-width="0" fill="#000000">RR</text>
  <text stroke="#000" transform="matrix(0.5721177394794389,0,0,0.5986069553664137,258.14488972054005,40.819692619716236) " xml:space="preserve" text-anchor="start" font-family="Helvetica, Arial, sans-serif" font-size="24" id="svg_96" y="52.31476" x="831.89046" fill-opacity="null" stroke-opacity="null" stroke-width="0" fill="#000000">DR</text>
  <text stroke="#000" transform="matrix(0.7467721700668334,0,0,0.7037037014961243,166.73761469125748,58.875000334344804) " xml:space="preserve" text-anchor="start" font-family="Helvetica, Arial, sans-serif" font-size="24" id="svg_97" y="173.45313" x="654.5" fill-opacity="null" stroke-opacity="null" stroke-width="0" fill="#000000">Project</text>
  <text stroke="#000" transform="matrix(0.35489505225253215,0,0,0.32529327289415044,428.14280101375556,203.4863641005269) " xml:space="preserve" text-anchor="start" font-family="Helvetica, Arial, sans-serif" font-size="24" id="svg_98" y="182.29441" x="669.36704" fill-opacity="null" stroke-opacity="null" stroke-width="0" fill="#000000">Project</text>
  <text stroke="#000" transform="matrix(0.25881506967174306,0,0,0.28074794092268207,510.0521493016471,215.61998190084395) " xml:space="preserve" text-anchor="start" font-family="Helvetica, Arial, sans-serif" font-size="24" id="svg_99" y="312.87197" x="880.29179" fill-opacity="null" stroke-opacity="null" stroke-width="0" fill="#000000">Project</text>
 </g>
</svg>
