<svg width="900" height="500" xmlns="http://www.w3.org/2000/svg">
 <!-- Created with Method Draw - http://github.com/duopixel/Method-Draw/ -->

 <g>
  <title>background</title>
  <rect fill="#fff" id="canvas_background" height="502" width="902" y="-1" x="-1"/>
  <g display="none" id="canvasGrid">
   <rect fill="url(#gridpattern)" stroke-width="0" y="0" x="0" height="100%" width="100%" id="svg_4"/>
  </g>
 </g>
 <g>
  <title>Layer 1</title>
  <rect id="FIT" height="25" width="460" y="37" x="30" stroke-width="1.5" stroke="#000" fill="#56aaff"/>
  <rect id="Common RSP" height="28" width="141" y="68.45313" x="324.5" stroke-width="1.5" stroke="#000" fill="#56aaff"/>
  <rect id="RF" height="43" width="34" y="66.45313" x="53.5" stroke-width="1.5" stroke="#000" fill="#ffff56"/>
  <rect id="RF" height="43" width="34" y="66.45313" x="92.5" stroke-width="1.5" stroke="#000" fill="#ffff56"/>
  <rect id="ST Common RSP" height="28" width="178" y="68.45313" x="135.5" stroke-width="1.5" stroke="#000" fill="#ffff56"/>
  <rect id="BSI Y" height="52" width="99" y="173.45313" x="19.5" stroke-width="1.5" stroke="#000" fill="#ffff56"/>
  <rect id="SMC" height="57" width="131" y="233.1198" x="19.5" stroke-width="1.5" stroke="#000" fill="#ffff56"/>
  <rect id="SUR" height="37" width="153" y="226.45313" x="158.5" stroke-width="1.5" stroke="#000" fill="#ffff56"/>
  <rect id="SUB" height="44" width="153" y="273.45313" x="158.5" stroke-width="1.5" stroke="#000" fill="#ffff56"/>
  <rect id="BSO" height="73" width="145" y="218.45313" x="323.5" stroke-width="1.5" stroke="#000" fill="#ffff56"/>
  <rect id="REPAIR" height="40" width="20" y="69.45313" x="26.5" stroke-width="1.5" stroke="#000" fill="#999999"/>
  <rect id="BSI G" height="43" width="99" y="120.45313" x="19.5" stroke-width="1.5" stroke="#000" fill="#999999"/>
  <rect id="project" height="26" width="131" y="298.45313" x="19.5" stroke-width="1.5" stroke="#000" fill="#999999"/>
  <rect id="lab" height="46" width="59" y="332.45313" x="14.5" stroke-width="1.5" stroke="#000" fill="#999999"/>
  <rect id="SUB" height="46" width="154" y="332.45313" x="84.5" stroke-width="1.5" stroke="#000" fill="#999999"/>
  <rect id="project" height="77" width="55" y="300.45313" x="404.5" stroke-width="1.5" stroke="#000" fill="#999999"/>
  <path id="SFO" d="m136.5,105.5l330,0l0,50l-75,0l-10,10l-80,0l-10,-10l-80,0l-10,10l-65,0l0,-60z" stroke-width="1.5" stroke="#000" fill="#ffff56"/>
  <path id="svg_21" d="m132.5,175.45313l70,0l10,-10l80,0l10,10l115,0l0,35l-100,0l-10,10l-175,0l0,-45z" stroke-width="1.5" stroke="#000" fill="#ffff56"/>
  <path id="SSO" d="m245.5,330.45313l78,0l0,-30l75,0l0,78l-153,0l0,-48z" stroke-width="1.5" stroke="#000" fill="#ffff56"/>
  <rect id="svg_23" height="34" width="149" y="343.45313" x="469.5" stroke-width="1.5" stroke="#000" fill="#aa56ff"/>
  <rect stroke="#000" id="svg_24" height="22" width="31" y="252.453129" x="665.5" stroke-width="1.5" fill="#aa56ff"/>
  <path id="AMC" d="m624.5,339.45313l10,0l10,-10l120,0l0,49l-140,0l0,-39z" stroke-width="1.5" stroke="#000" fill="#aa56ff"/>
  <path stroke="#000" id="AFI" d="m479.491539,284.45313l69.17556,0l9.882223,-10l69.17556,0l13.835112,14l88.940006,0l0,32l-93.881118,0l-11.858668,12l-147,0l0,-48l3.46265,0l-1.731325,0z" stroke-width="1.5" fill="#aa56ff"/>
  <path id="ASI" d="m477.69181,247.69205l80,0l0,18l-15,0l-10,10l-55,0l0,-28z" stroke-width="1.5" stroke="#000" fill="#aa56ff"/>
  <path id="AFO" d="m477.38412,207.69209l75,0l10,-10l55,0l10,-10l68,0l20,20l50,0l0,30l-45,0l-10,10l-95,0l0,15l-45,0l0,-24l-93,0l0,-20l0,-11z" stroke-width="1.5" stroke="#000" fill="#aa56ff"/>
  <path id="FDR" d="m620.99936,251.99974l40,0l0,22l-20,0l-10,-10l-10,0l0,-12z" stroke-width="1.5" stroke="#000" fill="#aa56ff"/>
  <path id="ASO" d="m699.99927,252.76897l13,0l5,-5l47,0l0,28l-64.7,0l-0.3,-23z" stroke-width="1.5" stroke="#000" fill="#aa56ff"/>
  <rect stroke="#000" id="svg_34" height="24.999971" width="34.61535" y="36.53843" x="500.76871" stroke-width="1.5" fill="#56ffaa"/>
  <rect id="svg_35" height="31.53843" width="64.61532" y="66.15378" x="469.99951" stroke-width="1.5" stroke="#000" fill="#56ffaa"/>
  <rect id="svg_36" height="50.76918" width="54.61533" y="103.84605" x="476.15335" stroke-width="1.5" stroke="#000" fill="#56ffaa"/>
  <rect stroke="#000" id="svg_37" height="62.307632" width="35.38458" y="33.846118" x="643.61472" stroke-width="1.5" fill="#56ffaa"/>
  <rect id="svg_38" height="56.92302" width="35.38458" y="99.9999" x="643.08295" stroke-width="1.5" stroke="#000" fill="#56ffaa"/>
  <rect stroke="#000" id="svg_39" height="60.769169" width="33.84612" y="33.538429" x="689.07621" stroke-width="1.5" fill="#56ffaa"/>
  <rect id="svg_40" height="27.58621" width="35.86207" y="97.93103" x="686.68966" stroke-width="1.5" stroke="#000" fill="#56ffaa"/>
  <rect id="svg_41" height="26.2069" width="35.17241" y="128.27586" x="687.37931" stroke-width="1.5" stroke="#000" fill="#56ffaa"/>
  <rect id="svg_42" height="63.44828" width="33.7931" y="31.72414" x="731.89655" stroke-width="1.5" stroke="#000" fill="#56ffaa"/>
  <rect id="svg_43" height="26.89655" width="33.7931" y="97.93103" x="731.89655" stroke-width="1.5" stroke="#000" fill="#56ffaa"/>
  <rect stroke="#000" id="svg_44" height="26.2069" width="33.172411" y="128.27586" x="732.206897" stroke-width="1.5" fill="#56ffaa"/>
  <path stroke="#000" id="svg_46" d="m552.2069,36.103449l35,0l0,59.508197l-10,9.918033l0,51.573771l-40,0l0,-51.573771l10,-9.918033l0,-59.508197l5,0z" stroke-width="1.5" fill="#56ffaa"/>
  <path id="svg_47" d="m595.83508,35.10345l35,0l0,122l-45,0l0,-50l10,-10l0,-62z" stroke-width="1.5" stroke="#000" fill="#56ffaa"/>
  <path id="svg_48" d="m476.55172,165.82759l145,0l0,18l-8,8l-55,0l-9,9l-73,0l0,-21l0,-14z" stroke-width="1.5" fill="#56ffaa" stroke="#000"/>
  <path id="svg_49" d="m628.96552,165.82759l138,0l0,29l-53,0l-12,-12l-72.8,0l-0.2,-17z" stroke-width="1.5" stroke="#000" fill="#999999"/>
  <rect stroke="#000" id="svg_50" height="32.72414" width="26.275862" y="288.206901" x="736.10345" stroke-width="1.5" fill="#999999"/>
  <text stroke="#000" transform="matrix(0.6102022528648376,0,0,0.5940658450126648,75.19442165829241,8.791011543944478) " xml:space="preserve" text-anchor="start" font-family="Helvetica, Arial, sans-serif" font-size="24" id="svg_51" y="76.99988" x="232.793364" stroke-width="0" fill="#000000">FIT(MF)</text>
  <text stroke="#000" transform="matrix(0.5833320021629333,0,0,0.6563160419464111,26.556074424646795,21.480247378349304) " xml:space="preserve" text-anchor="start" font-family="Helvetica, Arial, sans-serif" font-size="24" id="svg_53" y="105.75213" x="59.46302" fill-opacity="null" stroke-opacity="null" stroke-width="0" fill="#000000">RF</text>
  <text stroke="#000" transform="matrix(0.626056357789853,0,0,0.6252915859222412,25.296689255034128,90.24032478407025) " xml:space="preserve" text-anchor="start" font-family="Helvetica, Arial, sans-serif" font-size="24" id="svg_54" y="279.82613" x="62.49874" fill-opacity="null" stroke-opacity="null" stroke-width="0" fill="#000000">SMC</text>
  <text stroke="#000" transform="matrix(0.5675859883896236,0,0,0.6577206998964269,44.72477223845481,24.72255510812336) " xml:space="preserve" text-anchor="start" font-family="Helvetica, Arial, sans-serif" font-size="24" id="svg_55" y="101.23273" x="95.61505" fill-opacity="null" stroke-opacity="null" stroke-width="0" fill="#000000">RF</text>
  <text stroke="#000" transform="matrix(0.7297003269195557,0,0,0.750048041343689,70.16388232633471,25.62007576227188) " xml:space="preserve" text-anchor="start" font-family="Helvetica, Arial, sans-serif" font-size="24" id="svg_56" y="145.27688" x="268.71891" fill-opacity="null" stroke-opacity="null" stroke-width="0" fill="#000000">SFO</text>
  <text stroke="#000" transform="matrix(0.7099014520645142,0,0,0.7189686894416809,66.3555100504309,47.305473572574556) " xml:space="preserve" text-anchor="start" font-family="Helvetica, Arial, sans-serif" font-size="24" id="svg_57" y="208.54574" x="233.44478" fill-opacity="null" stroke-opacity="null" stroke-width="0" fill="#000000">SFI</text>
  <text stroke="#000" transform="matrix(0.6876274347305298,0,0,0.7189686894416809,95.65921729244292,93.90836886875331) " xml:space="preserve" text-anchor="start" font-family="Helvetica, Arial, sans-serif" font-size="24" id="svg_58" y="366.2661" x="309.88522" fill-opacity="null" stroke-opacity="null" stroke-width="0" fill="#000000">SSO</text>
  <text stroke="#000" transform="matrix(0.597373956444244,0,0,0.6565172672271729,84.96643965520688,76.70935468003154) " xml:space="preserve" text-anchor="start" font-family="Helvetica, Arial, sans-serif" font-size="24" id="svg_59" y="264.0407" x="224.40372" fill-opacity="null" stroke-opacity="null" stroke-width="0" fill="#000000">SUR</text>
  <text stroke="#000" transform="matrix(0.704068124294281,0,0,0.7189686894416809,110.35484602488577,65.5725087588653) " xml:space="preserve" text-anchor="start" font-family="Helvetica, Arial, sans-serif" font-size="24" id="svg_60" y="268.90966" x="378.83441" fill-opacity="null" stroke-opacity="null" stroke-width="0" fill="#000000">BSO</text>
  <text stroke="#000" transform="matrix(0.652580976486206,0,0,0.742052435874939,11.719963621348143,86.39228182844818) " xml:space="preserve" text-anchor="start" font-family="Helvetica, Arial, sans-serif" font-size="24" id="svg_61" y="368.38617" x="27.08615" fill-opacity="null" stroke-opacity="null" stroke-width="0" fill="#000000">Lab</text>
  <text stroke="#000" transform="matrix(0.6299253106117249,0,0,0.6775655150413513,46.01647465862334,108.78637240175158) " xml:space="preserve" text-anchor="start" font-family="Helvetica, Arial, sans-serif" font-size="24" id="svg_62" y="370.68082" x="161.61928" fill-opacity="null" stroke-opacity="null" stroke-width="0" fill="#000000">SUB</text>
  <text stroke="#000" transform="matrix(0.6173114776611328,0,0,0.6133027076721191,164.7175113260746,121.04833678901196) " xml:space="preserve" text-anchor="start" font-family="Helvetica, Arial, sans-serif" font-size="24" id="svg_63" y="363.13949" x="395.21898" fill-opacity="null" stroke-opacity="null" stroke-width="0" fill="#000000">Project</text>
  <text stroke="#000" transform="matrix(0.6403735876083374,0,0,0.6133027076721191,16.256237672641873,66.91071586310863) " xml:space="preserve" text-anchor="start" font-family="Helvetica, Arial, sans-serif" font-size="24" id="svg_64" y="218.88594" x="60.15426" fill-opacity="null" stroke-opacity="null" stroke-width="0" fill="#000000">BSI</text>
  <text stroke="#000" transform="matrix(0.7302802205085754,0,0,0.6453220844268799,12.664186521433294,42.561349868774414) " xml:space="preserve" text-anchor="start" font-family="Helvetica, Arial, sans-serif" font-size="24" id="svg_65" y="163.29901" x="54.10082" fill-opacity="null" stroke-opacity="null" stroke-width="0" fill="#000000">BSI</text>
  <text stroke="#000" transform="rotate(91.62761688232422 37.883068084716804,90.18240356445311) matrix(0.4888518678412198,0,0,0.4703859641169643,16.828066145076267,34.14032765265112) " xml:space="preserve" text-anchor="start" font-family="Helvetica, Arial, sans-serif" font-size="24" id="svg_66" y="126.95673" x="6.50936" fill-opacity="null" stroke-opacity="null" stroke-width="0" fill="#000000">Repair</text>
  <text stroke="#000" transform="matrix(0.6045156119765948,0,0,0.6207128472132695,139.48340024858985,23.82190090924548) " xml:space="preserve" text-anchor="start" font-family="Helvetica, Arial, sans-serif" font-size="24" id="svg_67" y="102.692991" x="348.411395" fill-opacity="null" stroke-opacity="null" stroke-width="0" fill="#000000">Common RSP</text>
  <text stroke="#000" transform="matrix(0.6193514534140121,0,0,0.6453220844268799,61.093727067175585,21.280674934387207) " xml:space="preserve" text-anchor="start" font-family="Helvetica, Arial, sans-serif" font-size="24" id="svg_68" y="103.29899" x="164.92689" fill-opacity="null" stroke-opacity="null" stroke-width="0" fill="#000000">ST Common RSP</text>
  <text stroke="#000" transform="matrix(0.572008591405222,0,0,0.5942589941582879,89.85491127209079,110.24587368247052) " xml:space="preserve" text-anchor="start" font-family="Helvetica, Arial, sans-serif" font-size="24" id="svg_69" y="320.31121" x="226.98075" fill-opacity="null" stroke-opacity="null" stroke-width="0" fill="#000000">SUB</text>
  <text stroke="#000" transform="matrix(0.644307553768158,0,0,0.6453220844268799,186.19388021342456,118.73951592296362) " xml:space="preserve" text-anchor="start" font-family="Helvetica, Arial, sans-serif" font-size="24" id="svg_70" y="382.12414" x="524.212903" fill-opacity="null" stroke-opacity="null" stroke-width="0" fill="#000000">ALUB</text>
  <text stroke="#000" transform="matrix(0.6795151829719543,0,0,0.6453220844268799,215.14045615587384,114.7272220030427) " xml:space="preserve" text-anchor="start" font-family="Helvetica, Arial, sans-serif" font-size="24" id="svg_71" y="378.972107" x="680.61991" fill-opacity="null" stroke-opacity="null" stroke-width="0" fill="#000000">AMC</text>
  <text stroke="#000" transform="matrix(0.6189724862430523,0,0,0.5470155291887693,188.84339004072996,108.43710133476095) " xml:space="preserve" text-anchor="start" font-family="Helvetica, Arial, sans-serif" font-size="24" id="svg_72" y="285.30342" x="500.25998" fill-opacity="null" stroke-opacity="null" stroke-width="0" fill="#000000">ASI</text>
  <text stroke="#000" transform="matrix(0.5937796831130981,0,0,0.5485917329788208,234.54780265502632,103.23142806440592) " xml:space="preserve" text-anchor="start" font-family="Helvetica, Arial, sans-serif" font-size="24" id="svg_73" y="280.55148" x="586.17811" fill-opacity="null" stroke-opacity="null" stroke-width="0" fill="#000000">RF</text>
  <text stroke="#000" transform="matrix(0.6289436114485766,0,0,0.5791486215192769,224.51357840765772,98.65223924697955) " xml:space="preserve" text-anchor="start" font-family="Helvetica, Arial, sans-serif" font-size="24" id="svg_74" y="213.09336" x="668.543246" fill-opacity="null" stroke-opacity="null" stroke-width="0" fill="#000000">AFO</text>
  <text stroke="#000" transform="matrix(0.7996565163250227,0,0,0.6888468189722232,107.11878088412483,87.26048199543591) " xml:space="preserve" text-anchor="start" font-family="Helvetica, Arial, sans-serif" font-size="24" id="svg_75" y="319.0768" x="575.54218" fill-opacity="null" stroke-opacity="null" stroke-width="0" fill="#000000">AFI</text>
  <text stroke="#000" transform="matrix(0.5751977461707057,0,0,0.5727460745744395,303.08543687974964,105.63492166226607) " xml:space="preserve" text-anchor="start" font-family="Helvetica, Arial, sans-serif" font-size="24" id="svg_76" y="278.52343" x="721.29407" fill-opacity="null" stroke-opacity="null" stroke-width="0" fill="#000000">ASO</text>
  <text stroke="#000" transform="matrix(0.5029657465830368,0,0,0.47536249621985976,313.9157129130289,127.38420965961447) " xml:space="preserve" text-anchor="start" font-family="Helvetica, Arial, sans-serif" font-size="24" id="svg_77" y="286.23265" x="630.48337" fill-opacity="null" stroke-opacity="null" stroke-width="0" fill="#000000">FDR</text>
  <text stroke="#000" transform="matrix(0.608751118183136,0,0,0.580835223197937,196.98158546723425,67.06636428833008) " xml:space="preserve" text-anchor="start" font-family="Helvetica, Arial, sans-serif" font-size="24" id="svg_78" y="204.420159" x="496.33609" fill-opacity="null" stroke-opacity="null" stroke-width="0" fill="#000000">HD/LG</text>
  <text stroke="#000" transform="matrix(0.4810178279876709,0,0,0.48410487174987793,262.645524520427,13.453577641397715) " xml:space="preserve" text-anchor="start" font-family="Helvetica, Arial, sans-serif" font-size="24" id="svg_79" y="80.697166" x="506.087" fill-opacity="null" stroke-opacity="null" stroke-width="0" fill="#000000">FDR</text>
  <text stroke="#000" transform="matrix(0.5846851468086243,0,0,0.5488531589508057,205.49000220559537,29.41618387028575) " xml:space="preserve" text-anchor="start" font-family="Helvetica, Arial, sans-serif" font-size="24" id="svg_80" y="102.79985" x="482.88475" fill-opacity="null" stroke-opacity="null" stroke-width="0" fill="#000000">FDR</text>
  <text stroke="#000" transform="rotate(1.194291591644287 568.010314941405,77.15356445312511) matrix(0.421738268907599,0,0,0.5498701496231493,320.7530604158087,23.30494955162807) " xml:space="preserve" text-anchor="start" font-family="Helvetica, Arial, sans-serif" font-size="24" id="svg_81" y="106.857915" x="545.682781" fill-opacity="null" stroke-opacity="null" stroke-width="0" fill="#000000">HD&amp;DL</text>
  <text stroke="#000" transform="matrix(0.45917102694511414,0,0,0.4196179807186126,254.47166875842964,78.37071683444083) " xml:space="preserve" text-anchor="start" font-family="Helvetica, Arial, sans-serif" font-size="24" id="svg_82" y="131.30437" x="493.04352" fill-opacity="null" stroke-opacity="null" stroke-width="0" fill="#000000">DL Laser</text>
  <text stroke="#000" transform="matrix(0.41661489397860674,0,0,0.4463250091400106,318.6790167587362,60.64541259199052) " xml:space="preserve" text-anchor="start" font-family="Helvetica, Arial, sans-serif" font-size="24" id="svg_83" y="160.61373" x="526.947784" fill-opacity="null" stroke-opacity="null" stroke-width="0" fill="#000000">HD&amp;TG</text>
  <text stroke="#000" transform="matrix(0.6335457563400269,0,0,0.6453220844268799,217.9601131118834,28.98937775567174) " xml:space="preserve" text-anchor="start" font-family="Helvetica, Arial, sans-serif" font-size="24" id="svg_84" y="117.155304" x="602.468882" fill-opacity="null" stroke-opacity="null" stroke-width="0" fill="#000000">DR</text>
  <text stroke="#000" transform="matrix(0.3888059370649621,0,0,0.47034296050221147,395.1516710188511,25.66556195546066) " xml:space="preserve" text-anchor="start" font-family="Helvetica, Arial, sans-serif" font-size="24" id="svg_85" y="96.23499" x="649.019175" fill-opacity="null" stroke-opacity="null" stroke-width="0" fill="#000000">HD/LG</text>
  <text stroke="#000" transform="matrix(0.5604478716850281,0,0,0.5488531589508057,284.74736312404275,48.639268800616264) " xml:space="preserve" text-anchor="start" font-family="Helvetica, Arial, sans-serif" font-size="24" id="svg_86" y="141.843805" x="651.006841" fill-opacity="null" stroke-opacity="null" stroke-width="0" fill="#000000">DR</text>
  <text stroke="#000" transform="matrix(0.48133444249433666,0,0,0.44517987140264464,341.276511729331,54.672540160260375) " xml:space="preserve" text-anchor="start" font-family="Helvetica, Arial, sans-serif" font-size="24" id="svg_87" y="120.63158" x="733.198598" fill-opacity="null" stroke-opacity="null" stroke-width="0" fill="#000000">DR</text>
  <text stroke="#000" transform="matrix(0.44311263785558097,0,0,0.42360479146386565,378.04711668296045,62.57390933706715) " xml:space="preserve" text-anchor="start" font-family="Helvetica, Arial, sans-serif" font-size="24" id="svg_88" y="178.67952" x="719.19767" fill-opacity="null" stroke-opacity="null" stroke-width="0" fill="#000000">DR</text>
  <text stroke="#000" transform="matrix(0.4615563023310898,0,0,0.45270979627355246,363.69389116928556,57.91831695618843) " xml:space="preserve" text-anchor="start" font-family="Helvetica, Arial, sans-serif" font-size="24" id="svg_89" y="113.62391" x="815.981108" fill-opacity="null" stroke-opacity="null" stroke-width="0" fill="#000000">DR</text>
  <text stroke="#000" transform="matrix(0.4615563023310898,0,0,0.4286740210326343,363.69389116928556,66.33153158574763) " xml:space="preserve" text-anchor="start" font-family="Helvetica, Arial, sans-serif" font-size="24" id="svg_90" y="169.86953" x="811.647942" fill-opacity="null" stroke-opacity="null" stroke-width="0" fill="#000000">DR</text>
  <text fill="#000000" stroke-width="0" stroke-opacity="null" fill-opacity="null" x="652.944445" y="147.806071" id="svg_27" font-size="24" font-family="Helvetica, Arial, sans-serif" text-anchor="start" xml:space="preserve" transform="matrix(0.6428571343421934,0,0,0.6296296119689941,227.75000545382497,50.24190025776624) " stroke="#000">INR</text>
  <text fill="#000000" stroke-width="0" stroke-opacity="null" fill-opacity="null" x="728.311778" y="116.71603" id="svg_28" font-size="24" font-family="Helvetica, Arial, sans-serif" text-anchor="start" xml:space="preserve" transform="matrix(0.5441932265543696,0,0,0.5193266943682033,297.69723483662824,59.737278796673) " stroke="#000">INR</text>
  <text fill="#000000" stroke-width="0" stroke-opacity="null" fill-opacity="null" x="728.311773" y="172.55757" id="svg_45" font-size="24" font-family="Helvetica, Arial, sans-serif" text-anchor="start" xml:space="preserve" transform="matrix(0.5441932265543696,0,0,0.5193266943682033,297.69723483662824,59.737278796673) " stroke="#000">INR</text>
  <text fill="#000000" stroke-width="0" stroke-opacity="null" fill-opacity="null" x="809.165411" y="118.6416" id="svg_52" font-size="24" font-family="Helvetica, Arial, sans-serif" text-anchor="start" xml:space="preserve" transform="matrix(0.5441932265543696,0,0,0.5193266943682033,297.69723483662824,59.737278796673) " stroke="#000">INR</text>
  <text fill="#000000" stroke-width="0" stroke-opacity="null" fill-opacity="null" x="807.32782" y="174.48314" id="svg_92" font-size="24" font-family="Helvetica, Arial, sans-serif" text-anchor="start" xml:space="preserve" transform="matrix(0.5441932265543696,0,0,0.5193266943682033,297.69723483662824,59.737278796673) " stroke="#000">INR</text>
  <text fill="#000000" stroke-width="0" stroke-opacity="null" fill-opacity="null" x="699.637704" y="67.041365" id="svg_93" font-size="24" font-family="Helvetica, Arial, sans-serif" text-anchor="start" xml:space="preserve" transform="matrix(0.5604040622711182,0,0,0.6296296119689941,304.42018687725067,16.0937507674098) " stroke="#000">FR</text>
  <text fill="#000000" stroke-width="0" stroke-opacity="null" fill-opacity="null" x="650.635703" y="171.45313" id="svg_94" font-size="24" font-family="Helvetica, Arial, sans-serif" text-anchor="start" xml:space="preserve" transform="matrix(0.5473032593727111,0,0,0.5925925970077515,340.4049591124058,-29.11169047467412) " stroke="#000">DR</text>
  <text fill="#000000" stroke-width="0" stroke-opacity="null" fill-opacity="null" x="824.305967" y="53.465362" id="svg_95" font-size="24" font-family="Helvetica, Arial, sans-serif" text-anchor="start" xml:space="preserve" transform="matrix(0.5668550245139983,0,0,0.6758490167592264,270.43612183060003,24.545452695372777) " stroke="#000">RR</text>
  <text fill="#000000" stroke-width="0" stroke-opacity="null" fill-opacity="null" x="838.882028" y="57.326396" id="svg_96" font-size="24" font-family="Helvetica, Arial, sans-serif" text-anchor="start" xml:space="preserve" transform="matrix(0.5721177394794389,0,0,0.5986069553664137,258.14488972054005,40.819692619716236) " stroke="#000">DR</text>
  <text fill="#000000" stroke-width="0" stroke-opacity="null" fill-opacity="null" x="687.627373" y="176.991596" id="svg_97" font-size="24" font-family="Helvetica, Arial, sans-serif" text-anchor="start" xml:space="preserve" transform="matrix(0.664103369659493,0,0,0.5652165792535797,220.51224005375332,79.20265612968805) " stroke="#000">Project</text>
  <text fill="#000000" stroke-width="0" stroke-opacity="null" fill-opacity="null" x="666.777544" y="182.29441" id="svg_98" font-size="24" font-family="Helvetica, Arial, sans-serif" text-anchor="start" xml:space="preserve" transform="matrix(0.3861755906164852,0,0,0.3461982492212835,407.4693003275621,200.32913683123982) " stroke="#000">Project</text>
  <text fill="#000000" stroke-width="0" stroke-opacity="null" fill-opacity="null" x="880.29179" y="312.87197" id="svg_99" font-size="24" font-family="Helvetica, Arial, sans-serif" text-anchor="start" xml:space="preserve" transform="matrix(0.2787289336368884,0,0,0.36210101005733536,492.7531755852174,192.9197926534278) " stroke="#000">Project</text>
 </g>
</svg>